<svg width="43" height="25" viewBox="0 0 43 25" fill="none" xmlns="http://www.w3.org/2000/svg">
<path d="M0 12.2715L6.78068 6.3503C8.97723 4.46412 11.1977 2.57795 13.3703 0.644024C13.9911 0.0948843 14.397 -0.000617474 15.0655 0.596273C16.9039 2.29144 18.8379 3.89111 20.7002 5.5624C21.2971 6.08767 21.7029 6.13542 22.2998 5.58628C24.1621 3.89111 26.0961 2.29144 27.9584 0.620147C28.4597 0.190385 28.8418 -0.09612 29.4625 0.476895C33.7124 4.20149 37.9861 7.87834 42.2599 11.5791C42.4923 11.7663 42.7399 11.934 43 12.0804L39.8484 14.8978C36.4581 17.8345 33.02 20.7473 29.6774 23.7318C28.9611 24.3525 28.5314 24.2809 27.8867 23.684C26.0722 22.0605 24.2099 20.5324 22.3953 18.9089C21.7746 18.3597 21.2732 18.3359 20.6524 18.9089L14.97 23.8273C14.4925 24.2809 14.1105 24.3764 13.5614 23.8989C9.3115 20.1743 5.03776 16.4974 0.764023 12.7967C0.522337 12.6034 0.266995 12.4279 0 12.2715ZM20.151 17.0227C18.2649 15.3753 16.5219 13.8234 14.6835 12.176L20.151 7.40083L14.2299 2.24369L2.79345 12.1998L14.2299 22.1798L20.151 17.0227ZM28.794 22.1798L40.2304 12.176L28.794 2.24369L22.8728 7.3292C24.7351 9.00049 26.4781 10.5524 28.3404 12.176L22.8728 17.0466L28.794 22.1798ZM17.2859 12.1998C18.6469 13.3697 19.8406 14.4203 21.0583 15.423C21.1784 15.4995 21.3159 15.544 21.458 15.5523C21.6 15.5607 21.7419 15.5326 21.8701 15.4708C23.1594 14.4441 24.377 13.3459 25.7379 12.176C24.377 11.0299 23.1832 9.95552 21.9178 8.92886C21.7944 8.85762 21.6544 8.82011 21.5119 8.82011C21.3694 8.82011 21.2295 8.85762 21.1061 8.92886C19.8406 9.95552 18.6469 11.0299 17.2859 12.1998Z" fill="url(#paint0_linear_337_687)"/>
<defs>
<linearGradient id="paint0_linear_337_687" x1="-2.68271" y1="12.1855" x2="53.7692" y2="12.1855" gradientUnits="userSpaceOnUse">
<stop stop-color="#FF5D00"/>
<stop offset="1" stop-color="#C82ED7"/>
</linearGradient>
</defs>
</svg>
