<svg width="24" height="29" viewBox="0 0 24 29" fill="none" xmlns="http://www.w3.org/2000/svg">
<ellipse cx="12" cy="14.0045" rx="12" ry="14.0045" fill="white"/>
<path d="M16.6082 17.176L13.8906 14.006L16.6066 10.836C17.1291 10.2281 17.1291 9.23856 16.6066 8.63059C16.0842 8.01728 15.2395 8.01906 14.717 8.62881L11.9994 11.7988L9.28184 8.62524C8.7594 8.01549 7.91312 8.01906 7.39068 8.62524C6.86977 9.23499 6.86977 10.2245 7.39068 10.8325L10.1098 14.006L7.39679 17.1707C6.87436 17.7804 6.87436 18.7699 7.39679 19.3761C7.65801 19.6827 7.99866 19.8343 8.34084 19.8343C8.68455 19.8343 9.02521 19.6827 9.28642 19.3779L11.9994 16.2115L14.7185 19.3832C14.9798 19.6881 15.3204 19.8396 15.6626 19.8396C16.0048 19.8396 16.347 19.6863 16.6082 19.3832C17.1306 18.7735 17.1306 17.7858 16.6082 17.176Z" fill="#130F26"/>
</svg>
