<svg width="16" height="17" viewBox="0 0 16 17" fill="none" xmlns="http://www.w3.org/2000/svg">
<path d="M13.3333 6.5H7.33333C6.59695 6.5 6 7.09695 6 7.83333V13.8333C6 14.5697 6.59695 15.1667 7.33333 15.1667H13.3333C14.0697 15.1667 14.6667 14.5697 14.6667 13.8333V7.83333C14.6667 7.09695 14.0697 6.5 13.3333 6.5Z" stroke="#BFBFBF" stroke-linecap="round" stroke-linejoin="round"/>
<path d="M3.33331 10.5H2.66665C2.31302 10.5 1.97389 10.3595 1.72384 10.1095C1.47379 9.85942 1.33331 9.52028 1.33331 9.16666V3.16666C1.33331 2.81304 1.47379 2.4739 1.72384 2.22385C1.97389 1.9738 2.31302 1.83333 2.66665 1.83333H8.66665C9.02027 1.83333 9.35941 1.9738 9.60946 2.22385C9.8595 2.4739 9.99998 2.81304 9.99998 3.16666V3.83333" stroke="#BFBFBF" stroke-linecap="round" stroke-linejoin="round"/>
</svg>
