<svg width="19" height="18" viewBox="0 0 19 18" fill="none" xmlns="http://www.w3.org/2000/svg">
<path d="M9.5 11.25C10.7426 11.25 11.75 10.2426 11.75 9C11.75 7.75736 10.7426 6.75 9.5 6.75C8.25736 6.75 7.25 7.75736 7.25 9C7.25 10.2426 8.25736 11.25 9.5 11.25Z" stroke="white" stroke-width="1.5" stroke-miterlimit="10" stroke-linecap="round" stroke-linejoin="round"/>
<path d="M2 9.66001V8.34001C2 7.56001 2.6375 6.91501 3.425 6.91501C4.7825 6.91501 5.3375 5.95501 4.655 4.77751C4.265 4.10251 4.4975 3.22501 5.18 2.83501L6.4775 2.09251C7.07 1.74001 7.835 1.95001 8.1875 2.54251L8.27 2.68501C8.945 3.86251 10.055 3.86251 10.7375 2.68501L10.82 2.54251C11.1725 1.95001 11.9375 1.74001 12.53 2.09251L13.8275 2.83501C14.51 3.22501 14.7425 4.10251 14.3525 4.77751C13.67 5.95501 14.225 6.91501 15.5825 6.91501C16.3625 6.91501 17.0075 7.55251 17.0075 8.34001V9.66001C17.0075 10.44 16.37 11.085 15.5825 11.085C14.225 11.085 13.67 12.045 14.3525 13.2225C14.7425 13.905 14.51 14.775 13.8275 15.165L12.53 15.9075C11.9375 16.26 11.1725 16.05 10.82 15.4575L10.7375 15.315C10.0625 14.1375 8.9525 14.1375 8.27 15.315L8.1875 15.4575C7.835 16.05 7.07 16.26 6.4775 15.9075L5.18 15.165C4.4975 14.775 4.265 13.8975 4.655 13.2225C5.3375 12.045 4.7825 11.085 3.425 11.085C2.6375 11.085 2 10.44 2 9.66001Z" stroke="white" stroke-width="1.5" stroke-miterlimit="10" stroke-linecap="round" stroke-linejoin="round"/>
</svg>
